SplineFontDB: 3.0
FontName: Braille-lines-cs
FullName: Braille-lines-cs
FamilyName: Braille-lines
Weight: Medium
Copyright: This font is released into the public domain and created by Timothy Hobbs,,,(timothyhobbs@seznam.cz) with FontForge 2.0 (http://fontforge.sf.net)
UComments: "2011-9-23: Created." 
Version: 001.000
ItalicAngle: 0
UnderlinePosition: -100
UnderlineWidth: 50
Ascent: 800
Descent: 200
LayerCount: 2
Layer: 0 0 "Back"  1
Layer: 1 0 "Fore"  0
XUID: [1021 538 1776246111 1592864]
FSType: 0
OS2Version: 0
OS2_WeightWidthSlopeOnly: 0
OS2_UseTypoMetrics: 1
CreationTime: 1316780889
ModificationTime: 1316874273
OS2TypoAscent: 0
OS2TypoAOffset: 1
OS2TypoDescent: 0
OS2TypoDOffset: 1
OS2TypoLinegap: 90
OS2WinAscent: 0
OS2WinAOffset: 1
OS2WinDescent: 0
OS2WinDOffset: 1
HheadAscent: 0
HheadAOffset: 1
HheadDescent: 0
HheadDOffset: 1
MarkAttachClasses: 1
DEI: 91125
Encoding: UnicodeFull
UnicodeInterp: none
NameList: Adobe Glyph List
DisplaySize: -24
AntiAlias: 1
FitToEm: 1
WinInfo: 40 40 16
BeginPrivate: 0
EndPrivate
BeginChars: 1114112 67

StartChar: a
Encoding: 97 97 0
Width: 300
VWidth: 79
Flags: W
HStem: 80 80<0 300> 700 20G<100 200> 700 20G<100 200>
VStem: 100 100<640 720>
LayerCount: 2
Fore
SplineSet
0 160 m 1x90
 300 160 l 1
 300 80 l 1
 0 80 l 1
 0 160 l 1x90
100 720 m 5xd0
 200 720 l 5
 200 720 200 664.42 200 640 c 5
 100 560 l 5
 100 720 l 5xd0
EndSplineSet
Validated: 1
EndChar

StartChar: b
Encoding: 98 98 1
Width: 300
VWidth: 79
Flags: HMW
LayerCount: 2
Fore
SplineSet
100 400 m 1
 200 400 l 1
 200 400 200 455.58 200 480 c 1
 100 560 l 1
 100 400 l 1
100 720 m 1
 200 720 l 1
 200 720 200 664.42 200 640 c 1
 100 560 l 1
 100 720 l 1
0 160 m 1
 300 160 l 1
 300 80 l 1
 0 80 l 1
 0 160 l 1
EndSplineSet
Validated: 5
EndChar

StartChar: c
Encoding: 99 99 2
Width: 300
VWidth: 79
Flags: W
HStem: 80 80<0 300> 700 20G<100 300> 700 20G<100 300>
VStem: 0 300<80 160>
LayerCount: 2
Fore
SplineSet
0 160 m 5x90
 300 160 l 5
 300 80 l 5
 0 80 l 5
 0 160 l 5x90
200 640 m 1
 100 568 l 1
 100 720 l 1
 200 720 l 1
 300 720 l 1xd0
 300 568 l 1
 200 640 l 1
EndSplineSet
Validated: 1
EndChar

StartChar: d
Encoding: 100 100 3
Width: 300
VWidth: 79
Flags: W
HStem: 80 80<0 300> 700 20G<100 300> 700 20G<100 300>
VStem: 200 100<400 480>
LayerCount: 2
Fore
SplineSet
200 720 m 5
 200 640 l 5xd0
0 160 m 1
 300 160 l 1
 300 80 l 1
 0 80 l 1
 0 160 l 1
200 480 m 1
 300 560 l 1
 300 560 300 424.42 300 400 c 1
 200 400 l 1
 200 480 l 1
200 640 m 1
 100 560 l 1
 100 720 l 1
 200 720 l 1
 300 720 l 1
 300 568 l 1
 200 640 l 1
EndSplineSet
Validated: 3
EndChar

StartChar: e
Encoding: 101 101 4
Width: 300
VWidth: 79
Flags: W
HStem: 80 80<0 300> 400 160<200 300> 700 20G<100 200> 700 20G<100 200>
VStem: 100 100<640 720> 200 100<400 560>
LayerCount: 2
Fore
SplineSet
100 720 m 1xe8
 200 720 l 1
 200 720 200 664.42 200 640 c 1
 100 560 l 1
 100 720 l 1xe8
0 160 m 1
 300 160 l 1
 300 80 l 1xc4
 0 80 l 1
 0 160 l 1
200 560 m 1
 300 560 l 1
 300 560 300 424.42 300 400 c 1
 200 400 l 1
 200 560 l 1
EndSplineSet
Validated: 1
EndChar

StartChar: f
Encoding: 102 102 5
Width: 300
VWidth: 79
Flags: W
HStem: 80 80<0 300> 700 20G<100 300> 700 20G<100 300>
VStem: 100 100<400 480>
LayerCount: 2
Fore
SplineSet
200 720 m 5
 200 640 l 5xd0
300 720 m 1
 300 560 l 1
 200 640 l 1
 100 568 l 1
 100 720 l 1
 200 720 l 1
 300 720 l 1
0 160 m 1
 300 160 l 1
 300 80 l 1
 0 80 l 1
 0 160 l 1
200 480 m 1
 200 400 l 1
 100 400 l 1
 100 424.42 100 560 100 560 c 1
 200 480 l 1
EndSplineSet
Validated: 3
EndChar

StartChar: g
Encoding: 103 103 6
Width: 300
VWidth: 79
Flags: W
HStem: 80 80<0 300> 700 20G<100 300> 700 20G<100 300>
VStem: 100 100<400 480>
LayerCount: 2
Fore
SplineSet
200 400 m 5
 200 480 l 5x90
0 160 m 1
 300 160 l 1
 300 80 l 1
 0 80 l 1
 0 160 l 1
300 400 m 5
 300 560 l 5
 200 480 l 5
 200 455.58 200 400 200 400 c 5
 300 400 l 5
200 640 m 5
 100 568 l 5
 100 720 l 5
 200 720 l 5
 300 720 l 5xd0
 300 568 l 5
 200 640 l 5
200 480 m 5
 200 400 l 5
 100 400 l 5
 100 552 l 5
 200 480 l 5
EndSplineSet
Validated: 11
EndChar

StartChar: space
Encoding: 32 32 7
Width: 300
VWidth: 23
Flags: W
HStem: 24.4004 51.1992<0 300>
VStem: 0 300<24.4004 75.5996>
LayerCount: 2
Fore
SplineSet
0 75.5996 m 1
 300 75.5996 l 1
 300 24.4004 l 1
 0 24.4004 l 1
 0 75.5996 l 1
EndSplineSet
Validated: 524289
EndChar

StartChar: s
Encoding: 115 115 8
Width: 300
VWidth: 79
Flags: W
HStem: 80 80<0 300>
VStem: 100 100<240 324.785>
LayerCount: 2
Fore
SplineSet
300 720 m 5
 200 720 l 5
 200 720 200 664.42 200 640 c 5
 300 560 l 5
 300 720 l 5
0 160 m 1
 300 160 l 1
 300 80 l 1
 0 80 l 1
 0 160 l 1
200 320 m 1
 200 240 l 1
 100 240 l 1
 100 264.42 100 400 100 400 c 1
 100 400 170.521 343.583 200 320 c 1
100 400 m 1
 100 400 100 535.58 100 560 c 1
 200 480 l 1
 100 400 l 1
EndSplineSet
Validated: 5
EndChar

StartChar: h
Encoding: 104 104 9
Width: 300
VWidth: 79
Flags: W
HStem: 80 80<0 300> 700 20G<100 200> 700 20G<100 200>
VStem: 100 100<400 480 640 720>
LayerCount: 2
Fore
SplineSet
200 400 m 5
 200 480 l 5x90
0 160 m 1
 300 160 l 1
 300 80 l 1
 0 80 l 1
 0 160 l 1
300 400 m 1
 300 560 l 1
 200 480 l 1
 200 455.58 200 400 200 400 c 1
 300 400 l 1
200 640 m 1
 100 560 l 1
 100 560 100 695.58 100 720 c 1
 200 720 l 1xd0
 200 640 l 1
200 480 m 1
 200 400 l 1
 100 400 l 1
 100 552 l 1
 200 480 l 1
EndSplineSet
Validated: 11
EndChar

StartChar: j
Encoding: 106 106 10
Width: 300
VWidth: 79
Flags: W
HStem: 80 80<0 300>
VStem: 0 300<80 160>
LayerCount: 2
Fore
SplineSet
200 400 m 1
 200 480 l 1
200 640 m 1
 300 560 l 1
 300 560 300 695.58 300 720 c 1
 200 720 l 1
 200 640 l 1
0 160 m 1
 300 160 l 1
 300 80 l 1
 0 80 l 1
 0 160 l 1
200 480 m 1
 100 560 l 1
 100 400 l 1
 200 400 l 1
 300 400 l 1
 300 552 l 1
 200 480 l 1
EndSplineSet
Validated: 11
EndChar

StartChar: i
Encoding: 105 105 11
Width: 300
VWidth: 79
Flags: W
HStem: 80 80<0 300> 400 160<100 200> 700 20G<200 300> 700 20G<200 300>
VStem: 100 100<400 560> 200 100<640 720>
LayerCount: 2
Fore
SplineSet
300 720 m 1xe4
 300 560 l 1
 200 640 l 1
 200 664.42 200 720 200 720 c 1
 300 720 l 1xe4
0 160 m 1
 300 160 l 1
 300 80 l 1
 0 80 l 1
 0 160 l 1
200 560 m 1xc8
 200 400 l 1
 100 400 l 1
 100 424.42 100 560 100 560 c 1
 200 560 l 1xc8
EndSplineSet
Validated: 1
EndChar

StartChar: k
Encoding: 107 107 12
Width: 300
VWidth: 79
Flags: W
HStem: 80 80<0 300> 700 20G<100 200> 700 20G<100 200>
VStem: 100 100<640 720>
LayerCount: 2
Fore
SplineSet
100 240 m 5x90
 200 240 l 5
 200 240 200 295.58 200 320 c 5
 100 400 l 5
 100 240 l 5x90
100 720 m 5xd0
 200 720 l 5
 200 720 200 664.42 200 640 c 5
 100 560 l 5
 100 720 l 5xd0
0 160 m 1
 300 160 l 1
 300 80 l 1
 0 80 l 1
 0 160 l 1
EndSplineSet
Validated: 9
EndChar

StartChar: l
Encoding: 108 108 13
Width: 300
VWidth: 79
Flags: W
HStem: 80 80<0 300> 700 20G<100 200> 700 20G<100 200>
VStem: 100 100<240 720>
LayerCount: 2
Fore
SplineSet
0 160 m 5x90
 300 160 l 5
 300 80 l 5
 0 80 l 5
 0 160 l 5x90
100 720 m 1xd0
 200 720 l 1
 200 720 200 264.42 200 240 c 1
 100 240 l 1
 100 720 l 1xd0
EndSplineSet
Validated: 1
EndChar

StartChar: m
Encoding: 109 109 14
Width: 300
VWidth: 79
Flags: W
HStem: 80 80<0 300> 700 20G<100 300> 700 20G<100 300>
VStem: 100 100<240 320>
LayerCount: 2
Fore
SplineSet
200 720 m 1
 200 640 l 1xd0
0 160 m 1
 300 160 l 1
 300 80 l 1
 0 80 l 1
 0 160 l 1
300 720 m 1
 300 560 l 1
 200 640 l 1
 100 568 l 1
 100 720 l 1
 200 720 l 1
 300 720 l 1
200 320 m 1
 200 240 l 1
 100 240 l 1
 100 264.42 100 400 100 400 c 1
 200 320 l 1
EndSplineSet
Validated: 3
EndChar

StartChar: z
Encoding: 122 122 15
Width: 300
VWidth: 79
Flags: W
HStem: 80 80<0 300> 700 20G<100 200> 700 20G<100 200>
VStem: 100 100<240 320 640 720> 200 100<480 560>
LayerCount: 2
Fore
SplineSet
100 720 m 1xd0
 200 720 l 1
 200 720 200 664.42 200 640 c 1
 100 560 l 1
 100 720 l 1xd0
200 240 m 1
 200 320 l 1
0 160 m 1
 300 160 l 1
 300 80 l 1x88
 0 80 l 1
 0 160 l 1
100 240 m 1x90
 100 400 l 1
 200 320 l 1
 200 295.58 200 240 200 240 c 1
 100 240 l 1x90
200 480 m 1x88
 200 560 l 1
 300 560 l 1
 300 535.58 300 400 300 400 c 1
 200 480 l 1x88
200 320 m 1x90
 200 240 l 1x90
 300 240 l 1
 300 392 l 1x88
 200 320 l 1x90
EndSplineSet
Validated: 11
EndChar

StartChar: n
Encoding: 110 110 16
Width: 300
VWidth: 79
Flags: W
HStem: 80 80<0 300> 700 20G<100 300> 700 20G<100 300>
VStem: 200 100<400 480>
LayerCount: 2
Fore
SplineSet
100 240 m 1x90
 200 240 l 1
 200 240 200 295.58 200 320 c 1
 100 400 l 1
 100 240 l 1x90
200 720 m 1xd0
 200 640 l 1
0 160 m 1
 300 160 l 1
 300 80 l 1
 0 80 l 1
 0 160 l 1
200 480 m 1
 300 560 l 1
 300 560 300 424.42 300 400 c 1
 200 400 l 1
 200 480 l 1
200 640 m 1
 100 560 l 1
 100 720 l 1
 200 720 l 1
 300 720 l 1
 300 568 l 1
 200 640 l 1
EndSplineSet
Validated: 11
EndChar

StartChar: o
Encoding: 111 111 17
Width: 300
VWidth: 79
Flags: W
HStem: 80 80<0 300> 400 160<200 300> 700 20G<100 200> 700 20G<100 200>
VStem: 100 100<640 720> 200 100<400 560>
LayerCount: 2
Fore
SplineSet
100 240 m 5xc8
 200 240 l 5
 200 240 200 295.58 200 320 c 5xc4
 100 400 l 5
 100 240 l 5xc8
100 720 m 5xe8
 200 720 l 5
 200 720 200 664.42 200 640 c 5
 100 560 l 5
 100 720 l 5xe8
0 160 m 1
 300 160 l 1
 300 80 l 1xc4
 0 80 l 1
 0 160 l 1
200 560 m 1
 300 560 l 1
 300 560 300 424.42 300 400 c 1
 200 400 l 1
 200 560 l 1
EndSplineSet
Validated: 9
EndChar

StartChar: p
Encoding: 112 112 18
Width: 300
VWidth: 79
Flags: W
HStem: 80 80<0 300> 700 20G<100 300> 700 20G<100 300>
VStem: 100 100<240 640>
LayerCount: 2
Fore
SplineSet
0 160 m 5x90
 300 160 l 5
 300 80 l 5
 0 80 l 5
 0 160 l 5x90
300 720 m 1xd0
 300 560 l 1
 200 640 l 1
 200 240 l 1
 100 240 l 1
 100 720 l 1
 200 720 l 1
 300 720 l 1xd0
EndSplineSet
Validated: 1
EndChar

StartChar: q
Encoding: 113 113 19
Width: 300
VWidth: 79
Flags: W
HStem: 80 80<0 300> 700 20G<100 300> 700 20G<100 300>
VStem: 100 100<400 480>
LayerCount: 2
Fore
SplineSet
100 240 m 5x90
 200 240 l 5
 200 240 200 295.58 200 320 c 5
 100 400 l 5
 100 240 l 5x90
200 400 m 1
 200 480 l 1
0 160 m 1
 300 160 l 1
 300 80 l 1
 0 80 l 1
 0 160 l 1
300 400 m 1
 300 560 l 1
 200 480 l 1
 200 455.58 200 400 200 400 c 1
 300 400 l 1
200 640 m 1
 100 568 l 1
 100 720 l 1
 200 720 l 1
 300 720 l 1xd0
 300 568 l 1
 200 640 l 1
200 480 m 1
 200 400 l 1
 100 400 l 1
 100 552 l 1
 200 480 l 1
EndSplineSet
Validated: 11
EndChar

StartChar: r
Encoding: 114 114 20
Width: 300
VWidth: 79
Flags: W
HStem: 80 80<0 300> 700 20G<100 200> 700 20G<100 200>
VStem: 100 100<280 400 560 720>
LayerCount: 2
Fore
SplineSet
0 160 m 5x90
 300 160 l 5
 300 80 l 5
 0 80 l 5
 0 160 l 5x90
100 720 m 1xd0
 200 720 l 1
 200 560 l 1
 300 600 l 1
 300 600 300 384.42 300 360 c 1
 200 400 l 1
 200 280 l 1
 100 240 l 1
 100 720 l 1xd0
EndSplineSet
Validated: 1
EndChar

StartChar: t
Encoding: 116 116 21
Width: 300
VWidth: 79
Flags: W
HStem: 80 80<0 300> 400 160<200 300> 700 20G<200 300> 700 20G<200 300>
VStem: 100 100<320 400> 200 100<640 720>
LayerCount: 2
Fore
SplineSet
0 160 m 1xc4
 300 160 l 1
 300 80 l 1
 0 80 l 1
 0 160 l 1xc4
300 560 m 1
 200 640 l 1
 200 664.42 200 720 200 720 c 1
 300 720 l 1xe4
 300 560 l 1
300 560 m 1
 300 400 l 1xc4
 200 400 l 1
 200 400 200 344.42 200 320 c 1
 100 240 l 1
 100 400 l 2
 100 424.42 100 560 100 560 c 1xc8
 300 560 l 1
EndSplineSet
Validated: 5
EndChar

StartChar: u
Encoding: 117 117 22
Width: 300
VWidth: 79
Flags: W
HStem: 80 80<0 300> 700 20G<100 200> 700 20G<100 200>
VStem: 100 100<240 320 640 720>
LayerCount: 2
Fore
SplineSet
200 240 m 5
 200 320 l 5x90
0 160 m 1
 300 160 l 1
 300 80 l 1
 0 80 l 1
 0 160 l 1
300 240 m 1
 300 400 l 1
 200 320 l 1
 200 295.58 200 240 200 240 c 1
 300 240 l 1
200 640 m 1
 100 560 l 1
 100 560 100 695.58 100 720 c 1
 200 720 l 1xd0
 200 640 l 1
200 320 m 1
 200 240 l 1
 100 240 l 1
 100 392 l 1
 200 320 l 1
EndSplineSet
Validated: 11
EndChar

StartChar: v
Encoding: 118 118 23
Width: 300
VWidth: 79
Flags: W
HStem: 80 80<0 300> 700 20G<100 200> 700 20G<100 200>
VStem: 100 100<320 720>
LayerCount: 2
Fore
SplineSet
0 160 m 5x90
 300 160 l 5
 300 80 l 5
 0 80 l 5
 0 160 l 5x90
100 240 m 1
 100 720 l 1
 200 720 l 1xd0
 200 320 l 1
 300 400 l 1
 300 240 l 1
 200 240 l 1
 100 240 l 1
EndSplineSet
Validated: 1
EndChar

StartChar: w
Encoding: 119 119 24
Width: 300
VWidth: 79
Flags: W
HStem: 80 80<0 300> 700 20G<100 200> 700 20G<100 200>
VStem: 100 100<240 320 640 720>
LayerCount: 2
Fore
SplineSet
100 720 m 5xd0
 200 720 l 5
 200 720 200 664.42 200 640 c 5
 100 560 l 5
 100 720 l 5xd0
200 560 m 1
 200 480 l 1
0 160 m 1
 300 160 l 1
 300 80 l 1
 0 80 l 1
 0 160 l 1
100 240 m 1
 100 392 l 1
 200 320 l 1
 200 240 l 1
 100 240 l 1
300 560 m 1
 300 400 l 1
 200 480 l 1
 100 408 l 1
 100 560 l 1
 200 560 l 1
 300 560 l 1
200 320 m 1
 200 240 l 1
 300 240 l 1
 300 392 l 1
 200 320 l 1
EndSplineSet
Validated: 11
EndChar

StartChar: x
Encoding: 120 120 25
Width: 300
VWidth: 79
Flags: W
HStem: 80 80<0 300> 700 20G<100 300> 700 20G<100 300>
VStem: 100 100<248 328>
LayerCount: 2
Fore
SplineSet
0 160 m 1x90
 300 160 l 1
 300 80 l 1
 0 80 l 1
 0 160 l 1x90
100 248 m 1
 100 400 l 1
 200 328 l 1
 200 248 l 1
 100 248 l 1
200 640 m 1
 100 568 l 1
 100 720 l 1
 200 720 l 1
 300 720 l 1xd0
 300 568 l 1
 200 640 l 1
200 328 m 1
 200 248 l 1
 300 248 l 1
 300 400 l 1
 200 328 l 1
EndSplineSet
Validated: 5
EndChar

StartChar: y
Encoding: 121 121 26
Width: 300
VWidth: 79
Flags: W
HStem: 80 80<0 300> 700 20G<100 300> 700 20G<100 300>
VStem: 100 200<240 320 640 720> 100 100<320 640>
LayerCount: 2
Fore
SplineSet
0 160 m 1x90
 300 160 l 1
 300 80 l 1
 0 80 l 1
 0 160 l 1x90
100 240 m 1
 100 720 l 1xd0
 200 720 l 1xc8
 300 720 l 1
 300 560 l 1xd0
 200 640 l 1
 200 320 l 1xc8
 300 400 l 1
 300 240 l 1xd0
 200 240 l 1xc8
 100 240 l 1
EndSplineSet
Validated: 1
EndChar

StartChar: A
Encoding: 65 65 27
Width: 600
VWidth: 79
Flags: W
HStem: 80 80<0 600> 700 20G<400 500> 700 20G<400 500>
VStem: 200 100<240 320> 400 100<640 720>
LayerCount: 2
Fore
SplineSet
0 160 m 1x98
 600 160 l 1
 600 80 l 1
 0 80 l 1
 0 160 l 1x98
400 720 m 5xd8
 500 720 l 5
 500 720 500 664.42 500 640 c 5
 400 560 l 5
 400 720 l 5xd8
300 240 m 1
 200 240 l 1
 200 240 200 295.58 200 320 c 1
 300 400 l 1
 300 240 l 1
EndSplineSet
Validated: 1
EndChar

StartChar: B
Encoding: 66 66 28
Width: 600
VWidth: 79
Flags: W
HStem: 80 80<0 300> 700 20G<400 500> 700 20G<400 500>
VStem: 200 100<240 320> 400 100<640 720>
LayerCount: 2
Fore
SplineSet
400 400 m 1x98
 500 400 l 1
 500 400 500 455.58 500 480 c 1
 400 560 l 1
 400 400 l 1x98
400 720 m 1xd8
 500 720 l 1
 500 720 500 664.42 500 640 c 1
 400 560 l 1
 400 720 l 1xd8
300 240 m 1
 200 240 l 1
 200 240 200 295.58 200 320 c 1
 300 400 l 1
 300 240 l 1
300 80 m 1
 600 80 l 1
 600 160 l 1
 300 160 l 1
 300 80 l 1
300 80 m 1
 0 80 l 1
 0 160 l 1
 300 160 l 1
 300 80 l 1
EndSplineSet
Validated: 5
EndChar

StartChar: C
Encoding: 67 67 29
Width: 600
VWidth: 79
Flags: W
HStem: 80 80<0 300> 700 20G<400 600> 700 20G<400 600>
VStem: 200 100<240 320>
LayerCount: 2
Fore
SplineSet
300 240 m 1x90
 200 240 l 1
 200 240 200 295.58 200 320 c 1
 300 400 l 1
 300 240 l 1x90
500 640 m 1
 400 568 l 1
 400 720 l 1
 500 720 l 1
 600 720 l 1xd0
 600 568 l 1
 500 640 l 1
300 80 m 1
 600 80 l 1
 600 160 l 1
 300 160 l 1
 300 80 l 1
300 80 m 1
 0 80 l 1
 0 160 l 1
 300 160 l 1
 300 80 l 1
EndSplineSet
Validated: 5
EndChar

StartChar: D
Encoding: 68 68 30
Width: 600
VWidth: 79
Flags: W
HStem: 80 80<0 300> 700 20G<400 600> 700 20G<400 600>
VStem: 200 100<240 320> 500 100<400 480>
LayerCount: 2
Fore
SplineSet
500 720 m 1
 500 640 l 1xd8
500 480 m 1
 600 560 l 1
 600 560 600 424.42 600 400 c 1
 500 400 l 1
 500 480 l 1
300 240 m 1
 200 240 l 1
 200 240 200 295.58 200 320 c 1
 300 400 l 1
 300 240 l 1
500 640 m 1
 400 560 l 1
 400 720 l 1
 500 720 l 1
 600 720 l 1
 600 568 l 1
 500 640 l 1
300 80 m 1
 600 80 l 1
 600 160 l 1
 300 160 l 1
 300 80 l 1
300 80 m 1
 0 80 l 1
 0 160 l 1
 300 160 l 1
 300 80 l 1
EndSplineSet
Validated: 11
EndChar

StartChar: E
Encoding: 69 69 31
Width: 600
VWidth: 79
Flags: W
HStem: 80 80<0 300> 400 160<500 600> 700 20G<400 500> 700 20G<400 500>
VStem: 200 100<240 320> 400 100<640 720> 500 100<400 560>
LayerCount: 2
Fore
SplineSet
400 720 m 1xec
 500 720 l 1
 500 720 500 664.42 500 640 c 1
 400 560 l 1
 400 720 l 1xec
500 560 m 1xca
 600 560 l 1
 600 560 600 424.42 600 400 c 1
 500 400 l 1
 500 560 l 1xca
300 240 m 1
 200 240 l 1
 200 240 200 295.58 200 320 c 1
 300 400 l 1
 300 240 l 1
300 80 m 1
 600 80 l 1
 600 160 l 1
 300 160 l 1
 300 80 l 1
300 80 m 1
 0 80 l 1
 0 160 l 1
 300 160 l 1
 300 80 l 1
EndSplineSet
Validated: 5
EndChar

StartChar: F
Encoding: 70 70 32
Width: 600
VWidth: 79
Flags: W
HStem: 80 80<0 300> 700 20G<400 600> 700 20G<400 600>
VStem: 200 100<240 320> 400 100<400 480>
LayerCount: 2
Fore
SplineSet
500 720 m 1
 500 640 l 1xd8
600 720 m 1
 600 560 l 1
 500 640 l 1
 400 568 l 1
 400 720 l 1
 500 720 l 1
 600 720 l 1
500 480 m 1
 500 400 l 1
 400 400 l 1
 400 424.42 400 560 400 560 c 1
 500 480 l 1
300 240 m 1
 200 240 l 1
 200 240 200 295.58 200 320 c 1
 300 400 l 1
 300 240 l 1
300 80 m 1
 600 80 l 1
 600 160 l 1
 300 160 l 1
 300 80 l 1
300 80 m 1
 0 80 l 1
 0 160 l 1
 300 160 l 1
 300 80 l 1
EndSplineSet
Validated: 11
EndChar

StartChar: G
Encoding: 71 71 33
Width: 600
VWidth: 79
Flags: W
HStem: 80 80<0 600> 700 20G<400 600> 700 20G<400 600>
VStem: 200 100<240 320> 400 100<400 480>
LayerCount: 2
Fore
SplineSet
500 400 m 1
 500 480 l 1x98
600 400 m 1
 600 560 l 1
 500 480 l 1
 500 455.58 500 400 500 400 c 1
 600 400 l 1
500 640 m 1
 400 568 l 1
 400 720 l 1
 500 720 l 1
 600 720 l 1xd8
 600 568 l 1
 500 640 l 1
500 480 m 1
 500 400 l 1
 400 400 l 1
 400 552 l 1
 500 480 l 1
300 240 m 1
 200 240 l 1
 200 240 200 295.58 200 320 c 1
 300 400 l 1
 300 240 l 1
600 80 m 1
 0 80 l 1
 0 160 l 1
 600 160 l 1
 600 80 l 1
EndSplineSet
Validated: 11
EndChar

StartChar: H
Encoding: 72 72 34
Width: 600
VWidth: 79
Flags: W
HStem: 80 80<0 300> 700 20G<400 500> 700 20G<400 500>
VStem: 200 100<240 320> 400 100<400 480 640 720>
LayerCount: 2
Fore
SplineSet
500 400 m 1
 500 480 l 1x98
600 400 m 1
 600 560 l 1
 500 480 l 1
 500 455.58 500 400 500 400 c 1
 600 400 l 1
500 640 m 1
 400 560 l 1
 400 560 400 695.58 400 720 c 1
 500 720 l 1xd8
 500 640 l 1
300 240 m 1
 200 240 l 1
 200 240 200 295.58 200 320 c 1
 300 400 l 1
 300 240 l 1
500 480 m 1
 500 400 l 1
 400 400 l 1
 400 552 l 1
 500 480 l 1
300 80 m 1
 600 80 l 1
 600 160 l 1
 300 160 l 1
 300 80 l 1
300 80 m 1
 0 80 l 1
 0 160 l 1
 300 160 l 1
 300 80 l 1
EndSplineSet
Validated: 11
EndChar

StartChar: I
Encoding: 73 73 35
Width: 600
VWidth: 79
Flags: W
HStem: 80 80<0 300> 400 160<400 500> 700 20G<500 600> 700 20G<500 600>
VStem: 200 100<240 320> 400 100<400 560> 500 100<640 720>
LayerCount: 2
Fore
SplineSet
600 720 m 1xea
 600 560 l 1
 500 640 l 1
 500 664.42 500 720 500 720 c 1
 600 720 l 1xea
500 560 m 1xcc
 500 400 l 1
 400 400 l 1
 400 424.42 400 560 400 560 c 1
 500 560 l 1xcc
300 240 m 1
 200 240 l 1
 200 240 200 295.58 200 320 c 1
 300 400 l 1
 300 240 l 1
300 80 m 1
 600 80 l 1
 600 160 l 1xca
 300 160 l 1
 300 80 l 1
300 80 m 1
 0 80 l 1
 0 160 l 1
 300 160 l 1
 300 80 l 1
EndSplineSet
Validated: 5
EndChar

StartChar: J
Encoding: 74 74 36
Width: 600
VWidth: 79
Flags: W
HStem: 80 80<0 300>
VStem: 200 100<240 320>
LayerCount: 2
Fore
SplineSet
500 400 m 1
 500 480 l 1
500 640 m 1
 600 560 l 1
 600 560 600 695.58 600 720 c 1
 500 720 l 1
 500 640 l 1
300 240 m 1
 200 240 l 1
 200 240 200 295.58 200 320 c 1
 300 400 l 1
 300 240 l 1
500 480 m 1
 400 560 l 1
 400 400 l 1
 500 400 l 1
 600 400 l 1
 600 552 l 1
 500 480 l 1
300 160 m 1
 300 80 l 1
 0 80 l 1
 0 160 l 1
 300 160 l 1
300 160 m 1
 300 80 l 1
 600 80 l 1
 600 160 l 1
 300 160 l 1
EndSplineSet
Validated: 11
EndChar

StartChar: K
Encoding: 75 75 37
Width: 600
VWidth: 79
Flags: W
HStem: 80 80<0 600> 700 20G<400 500> 700 20G<400 500>
VStem: 200 100<240 320> 400 100<640 720>
LayerCount: 2
Fore
SplineSet
400 240 m 5x98
 500 240 l 5
 500 240 500 295.58 500 320 c 5
 400 400 l 5
 400 240 l 5x98
400 720 m 5xd8
 500 720 l 5
 500 720 500 664.42 500 640 c 5
 400 560 l 5
 400 720 l 5xd8
300 240 m 1
 200 240 l 1
 200 240 200 295.58 200 320 c 1
 300 400 l 1
 300 240 l 1
600 80 m 1
 0 80 l 1
 0 160 l 1
 600 160 l 1
 600 80 l 1
EndSplineSet
Validated: 9
EndChar

StartChar: L
Encoding: 76 76 38
Width: 600
VWidth: 79
Flags: W
HStem: 80 80<0 600> 700 20G<400 500> 700 20G<400 500>
VStem: 200 100<240 320> 400 100<240 720>
LayerCount: 2
Fore
SplineSet
400 720 m 1xd8
 500 720 l 1
 500 720 500 264.42 500 240 c 1
 400 240 l 1
 400 720 l 1xd8
300 240 m 1
 200 240 l 1
 200 240 200 295.58 200 320 c 1
 300 400 l 1
 300 240 l 1
600 80 m 1
 0 80 l 1
 0 160 l 1
 600 160 l 1
 600 80 l 1
EndSplineSet
Validated: 1
EndChar

StartChar: M
Encoding: 77 77 39
Width: 600
VWidth: 79
Flags: W
HStem: 80 80<0 300> 700 20G<400 600> 700 20G<400 600>
VStem: 200 100<240 320> 400 100<240 320>
LayerCount: 2
Fore
SplineSet
500 720 m 1
 500 640 l 1xd8
600 720 m 1
 600 560 l 1
 500 640 l 1
 400 568 l 1
 400 720 l 1
 500 720 l 1
 600 720 l 1
500 320 m 1
 500 240 l 1
 400 240 l 1
 400 264.42 400 400 400 400 c 1
 500 320 l 1
300 240 m 1
 200 240 l 1
 200 240 200 295.58 200 320 c 1
 300 400 l 1
 300 240 l 1
300 80 m 1
 600 80 l 1
 600 160 l 1
 300 160 l 1
 300 80 l 1
300 80 m 1
 0 80 l 1
 0 160 l 1
 300 160 l 1
 300 80 l 1
EndSplineSet
Validated: 11
EndChar

StartChar: N
Encoding: 78 78 40
Width: 600
VWidth: 79
Flags: W
HStem: 80 80<0 300> 700 20G<400 600> 700 20G<400 600>
VStem: 200 100<240 320> 500 100<400 480>
LayerCount: 2
Fore
SplineSet
400 240 m 1x98
 500 240 l 1
 500 240 500 295.58 500 320 c 1
 400 400 l 1
 400 240 l 1x98
500 720 m 1xd8
 500 640 l 1
500 480 m 1
 600 560 l 1
 600 560 600 424.42 600 400 c 1
 500 400 l 1
 500 480 l 1
300 240 m 1
 200 240 l 1
 200 240 200 295.58 200 320 c 1
 300 400 l 1
 300 240 l 1
500 640 m 1
 400 560 l 1
 400 720 l 1
 500 720 l 1
 600 720 l 1
 600 568 l 1
 500 640 l 1
300 80 m 1
 600 80 l 1
 600 160 l 1
 300 160 l 1
 300 80 l 1
300 80 m 1
 0 80 l 1
 0 160 l 1
 300 160 l 1
 300 80 l 1
EndSplineSet
Validated: 11
EndChar

StartChar: O
Encoding: 79 79 41
Width: 600
VWidth: 79
Flags: W
HStem: 80 80<0 600> 400 160<500 600> 700 20G<400 500> 700 20G<400 500>
VStem: 200 100<240 320> 400 100<640 720> 500 100<400 560>
LayerCount: 2
Fore
SplineSet
400 240 m 5xcc
 500 240 l 5
 500 240 500 295.58 500 320 c 5xca
 400 400 l 5
 400 240 l 5xcc
400 720 m 1xec
 500 720 l 1
 500 720 500 664.42 500 640 c 1
 400 560 l 1
 400 720 l 1xec
500 560 m 1xca
 600 560 l 1
 600 560 600 424.42 600 400 c 1
 500 400 l 1
 500 560 l 1xca
300 240 m 1
 200 240 l 1
 200 240 200 295.58 200 320 c 1
 300 400 l 1
 300 240 l 1
600 80 m 1
 0 80 l 1
 0 160 l 1
 600 160 l 1
 600 80 l 1
EndSplineSet
Validated: 9
EndChar

StartChar: P
Encoding: 80 80 42
Width: 600
VWidth: 79
Flags: W
HStem: 80 80<0 600> 700 20G<400 600> 700 20G<400 600>
VStem: 200 100<240 320> 400 100<240 640>
LayerCount: 2
Fore
SplineSet
600 720 m 1xd8
 600 560 l 1
 500 640 l 1
 500 240 l 1
 400 240 l 1
 400 720 l 1
 500 720 l 1
 600 720 l 1xd8
300 240 m 1
 200 240 l 1
 200 240 200 295.58 200 320 c 1
 300 400 l 1
 300 240 l 1
600 80 m 1
 0 80 l 1
 0 160 l 1
 600 160 l 1
 600 80 l 1
EndSplineSet
Validated: 1
EndChar

StartChar: Q
Encoding: 81 81 43
Width: 600
VWidth: 79
Flags: W
HStem: 80 80<0 300> 700 20G<400 600> 700 20G<400 600>
VStem: 200 100<240 320> 400 100<400 480>
LayerCount: 2
Fore
SplineSet
400 240 m 5x98
 500 240 l 5
 500 240 500 295.58 500 320 c 5
 400 400 l 5
 400 240 l 5x98
500 400 m 1
 500 480 l 1
600 400 m 1
 600 560 l 1
 500 480 l 1
 500 455.58 500 400 500 400 c 1
 600 400 l 1
300 240 m 1
 200 240 l 1
 200 240 200 295.58 200 320 c 1
 300 400 l 1
 300 240 l 1
500 640 m 1
 400 568 l 1
 400 720 l 1
 500 720 l 1
 600 720 l 1xd8
 600 568 l 1
 500 640 l 1
500 480 m 1
 500 400 l 1
 400 400 l 1
 400 552 l 1
 500 480 l 1
300 80 m 1
 600 80 l 1
 600 160 l 1
 300 160 l 1
 300 80 l 1
300 80 m 1
 0 80 l 1
 0 160 l 1
 300 160 l 1
 300 80 l 1
EndSplineSet
Validated: 11
EndChar

StartChar: R
Encoding: 82 82 44
Width: 600
VWidth: 79
Flags: W
HStem: 80 80<0 600> 700 20G<400 500> 700 20G<400 500>
VStem: 200 100<240 320> 400 100<280 400 560 720>
LayerCount: 2
Fore
SplineSet
400 720 m 1xd8
 500 720 l 1
 500 560 l 1
 600 600 l 1
 600 600 600 384.42 600 360 c 1
 500 400 l 1
 500 280 l 1
 400 240 l 1
 400 720 l 1xd8
300 240 m 1
 200 240 l 1
 200 240 200 295.58 200 320 c 1
 300 400 l 1
 300 240 l 1
600 80 m 1
 0 80 l 1
 0 160 l 1
 600 160 l 1
 600 80 l 1
EndSplineSet
Validated: 1
EndChar

StartChar: S
Encoding: 83 83 45
Width: 600
VWidth: 79
Flags: W
HStem: 80 80<0 300>
VStem: 200 100<240 320> 400 100<240 324.785>
LayerCount: 2
Fore
SplineSet
600 720 m 1
 500 720 l 1
 500 720 500 664.42 500 640 c 1
 600 560 l 1
 600 720 l 1
500 320 m 1
 500 240 l 1
 400 240 l 1
 400 264.42 400 400 400 400 c 1
 400 400 470.521 343.583 500 320 c 1
300 240 m 1
 200 240 l 1
 200 240 200 295.58 200 320 c 1
 300 400 l 1
 300 240 l 1
400 400 m 1
 400 400 400 535.58 400 560 c 1
 500 480 l 1
 400 400 l 1
300 80 m 1
 600 80 l 1
 600 160 l 1
 300 160 l 1
 300 80 l 1
300 80 m 1
 0 80 l 1
 0 160 l 1
 300 160 l 1
 300 80 l 1
EndSplineSet
Validated: 5
EndChar

StartChar: T
Encoding: 84 84 46
Width: 600
VWidth: 79
Flags: W
HStem: 80 80<0 300> 400 160<500 600> 700 20G<500 600> 700 20G<500 600>
VStem: 200 100<240 320> 400 100<320 400> 500 100<640 720>
LayerCount: 2
Fore
SplineSet
300 240 m 1xc8
 200 240 l 1
 200 240 200 295.58 200 320 c 1
 300 400 l 1
 300 240 l 1xc8
600 560 m 1xea
 500 640 l 1
 500 664.42 500 720 500 720 c 1
 600 720 l 1
 600 560 l 1xea
600 560 m 1
 600 400 l 1xca
 500 400 l 1
 500 400 500 344.42 500 320 c 1
 400 240 l 1
 400 400 l 2
 400 424.42 400 560 400 560 c 1xcc
 600 560 l 1
300 80 m 1
 600 80 l 1
 600 160 l 1
 300 160 l 1
 300 80 l 1
300 80 m 1
 0 80 l 1
 0 160 l 1
 300 160 l 1
 300 80 l 1
EndSplineSet
Validated: 5
EndChar

StartChar: U
Encoding: 85 85 47
Width: 600
VWidth: 79
Flags: W
HStem: 80 80<0 300> 700 20G<400 500> 700 20G<400 500>
VStem: 200 100<240 320> 400 100<240 320 640 720>
LayerCount: 2
Fore
SplineSet
500 240 m 1
 500 320 l 1x98
600 240 m 1
 600 400 l 1
 500 320 l 1
 500 295.58 500 240 500 240 c 1
 600 240 l 1
500 640 m 1
 400 560 l 1
 400 560 400 695.58 400 720 c 1
 500 720 l 1xd8
 500 640 l 1
300 240 m 1
 200 240 l 1
 200 240 200 295.58 200 320 c 1
 300 400 l 1
 300 240 l 1
500 320 m 1
 500 240 l 1
 400 240 l 1
 400 392 l 1
 500 320 l 1
300 80 m 1
 600 80 l 1
 600 160 l 1
 300 160 l 1
 300 80 l 1
300 80 m 1
 0 80 l 1
 0 160 l 1
 300 160 l 1
 300 80 l 1
EndSplineSet
Validated: 11
EndChar

StartChar: V
Encoding: 86 86 48
Width: 600
VWidth: 79
Flags: W
HStem: 80 80<0 600> 700 20G<400 500> 700 20G<400 500>
VStem: 200 100<240 320> 400 100<320 720>
LayerCount: 2
Fore
SplineSet
400 240 m 1xd8
 400 720 l 1
 500 720 l 1
 500 320 l 1
 600 400 l 1
 600 240 l 1
 500 240 l 1
 400 240 l 1xd8
300 240 m 1
 200 240 l 1
 200 240 200 295.58 200 320 c 1
 300 400 l 1
 300 240 l 1
600 80 m 5
 0 80 l 1
 0 160 l 1
 600 160 l 5
 600 80 l 5
EndSplineSet
Validated: 1
EndChar

StartChar: W
Encoding: 87 87 49
Width: 600
VWidth: 79
Flags: W
HStem: 80 80<0 300> 700 20G<400 500> 700 20G<400 500>
VStem: 200 100<240 320> 400 200<240 320 480 560> 400 100<640 720>
LayerCount: 2
Fore
SplineSet
400 720 m 5xd4
 500 720 l 5
 500 720 500 664.42 500 640 c 5xd4
 400 560 l 5xd8
 400 720 l 5xd4
500 560 m 1
 500 480 l 1
400 240 m 1x98
 400 392 l 1
 500 320 l 1x94
 600 392 l 1
 600 240 l 1x98
 500 240 l 1x94
 400 240 l 1x98
600 560 m 1x98
 600 400 l 1x98
 500 480 l 1
 400 408 l 1x94
 400 560 l 1x98
 500 560 l 1x94
 600 560 l 1x98
300 240 m 1
 200 240 l 1
 200 240 200 295.58 200 320 c 1
 300 400 l 1
 300 240 l 1
300 80 m 1
 600 80 l 1
 600 160 l 1
 300 160 l 1
 300 80 l 1
300 80 m 1
 0 80 l 1
 0 160 l 1
 300 160 l 1
 300 80 l 1
EndSplineSet
Validated: 11
EndChar

StartChar: X
Encoding: 88 88 50
Width: 600
VWidth: 79
Flags: W
HStem: 80 80<0 300> 700 20G<400 600> 700 20G<400 600>
VStem: 200 100<240 320> 400 100<248 328>
LayerCount: 2
Fore
SplineSet
400 248 m 1x98
 400 400 l 1
 500 328 l 1
 500 248 l 1
 400 248 l 1x98
300 240 m 1
 200 240 l 1
 200 240 200 295.58 200 320 c 1
 300 400 l 1
 300 240 l 1
500 640 m 1
 400 568 l 1
 400 720 l 1
 500 720 l 1
 600 720 l 1xd8
 600 568 l 1
 500 640 l 1
500 328 m 1
 500 248 l 1
 600 248 l 1
 600 400 l 1
 500 328 l 1
300 80 m 1
 600 80 l 1
 600 160 l 1
 300 160 l 1
 300 80 l 1
300 80 m 1
 0 80 l 1
 0 160 l 1
 300 160 l 1
 300 80 l 1
EndSplineSet
Validated: 5
EndChar

StartChar: Y
Encoding: 89 89 51
Width: 600
VWidth: 79
Flags: W
HStem: 80 80<0 600> 700 20G<400 600> 700 20G<400 600>
VStem: 200 100<240 320> 400 200<240 320 640 720> 400 100<320 640>
LayerCount: 2
Fore
SplineSet
400 240 m 1xd8
 400 720 l 1xd8
 500 720 l 1xd4
 600 720 l 1
 600 560 l 1xd8
 500 640 l 1
 500 320 l 1xd4
 600 400 l 1
 600 240 l 1xd8
 500 240 l 1xd4
 400 240 l 1xd8
300 240 m 1
 200 240 l 1
 200 240 200 295.58 200 320 c 1
 300 400 l 1
 300 240 l 1
600 80 m 1
 0 80 l 1
 0 160 l 1
 600 160 l 1
 600 80 l 1
EndSplineSet
Validated: 1
EndChar

StartChar: Z
Encoding: 90 90 52
Width: 600
VWidth: 79
Flags: W
HStem: 80 80<0 300> 700 20G<400 500> 700 20G<400 500>
VStem: 200 100<240 320> 400 100<640 720> 500 100<480 560>
LayerCount: 2
Fore
SplineSet
400 720 m 1xd8
 500 720 l 1
 500 720 500 664.42 500 640 c 1
 400 560 l 1
 400 720 l 1xd8
500 240 m 1
 500 320 l 1x94
400 240 m 1x98
 400 400 l 1x98
 500 320 l 1
 600 392 l 1
 600 240 l 1
 500 240 l 1x94
 400 240 l 1x98
500 480 m 1x94
 500 560 l 1
 600 560 l 1
 600 535.58 600 400 600 400 c 1
 500 480 l 1x94
300 240 m 1
 200 240 l 1
 200 240 200 295.58 200 320 c 1
 300 400 l 1
 300 240 l 1
300 80 m 1
 600 80 l 1
 600 160 l 1
 300 160 l 1
 300 80 l 1
300 80 m 1
 0 80 l 1
 0 160 l 1
 300 160 l 1
 300 80 l 1
EndSplineSet
Validated: 11
EndChar

StartChar: one
Encoding: 49 49 53
Width: 600
VWidth: 79
Flags: W
HStem: 80 80<0 600> 240 160<0 200> 700 20G<200 300 400 500> 700 20G<200 300 400 500>
VStem: 200 100<400 720> 400 100<640 720>
LayerCount: 2
Fore
SplineSet
200 720 m 5xec
 300 720 l 5
 300 720 300 424.42 300 400 c 5
 200 400 l 5
 200 720 l 5xec
300 240 m 5
 0 240 l 5
 0 240 0 375.58 0 400 c 5
 300 400 l 5
 300 240 l 5
0 160 m 1
 600 160 l 1
 600 80 l 1
 0 80 l 1
 0 160 l 1
400 720 m 1
 500 720 l 1
 500 720 500 664.42 500 640 c 1
 400 560 l 1
 400 720 l 1
EndSplineSet
Validated: 5
EndChar

StartChar: comma
Encoding: 44 44 54
Width: 300
VWidth: 59
Flags: W
HStem: 60 80<0 300> 380 160<100 200>
VStem: 100 100<380 540>
LayerCount: 2
Fore
SplineSet
0 140 m 1
 300 140 l 1
 300 60 l 1
 0 60 l 1
 0 140 l 1
100 540 m 1
 200 540 l 1
 200 540 200 404.42 200 380 c 1
 100 380 l 1
 100 540 l 1
EndSplineSet
Validated: 1
EndChar

StartChar: period
Encoding: 46 46 55
Width: 300
VWidth: 39
Flags: W
HStem: 40 80<0 300> 200 160<100 200>
VStem: 100 100<200 360>
LayerCount: 2
Fore
SplineSet
0 120 m 1
 300 120 l 1
 300 40 l 1
 0 40 l 1
 0 120 l 1
100 360 m 1
 200 360 l 1
 200 360 200 224.42 200 200 c 1
 100 200 l 1
 100 360 l 1
EndSplineSet
Validated: 1
EndChar

StartChar: quotedbl
Encoding: 34 34 56
Width: 300
VWidth: 59
Flags: W
HStem: 60 80<0 300>
VStem: 100 100<220 300>
LayerCount: 2
Fore
SplineSet
200 220 m 5
 200 300 l 5
0 140 m 1
 300 140 l 1
 300 60 l 1
 0 60 l 1
 0 140 l 1
300 220 m 5
 300 380 l 5
 200 300 l 5
 200 275.58 200 220 200 220 c 5
 300 220 l 5
200 460 m 5
 100 388 l 5
 100 540 l 5
 200 540 l 5
 300 540 l 5
 300 388 l 5
 200 460 l 5
200 300 m 5
 200 220 l 5
 100 220 l 5
 100 372 l 5
 200 300 l 5
EndSplineSet
Validated: 11
EndChar

StartChar: exclam
Encoding: 33 33 57
Width: 300
VWidth: 59
Flags: W
HStem: 60 80<0 300>
VStem: 100 100<220 300>
LayerCount: 2
Fore
SplineSet
200 540 m 1
 200 460 l 1
300 540 m 1
 300 380 l 1
 200 460 l 1
 100 388 l 1
 100 540 l 1
 200 540 l 1
 300 540 l 1
0 140 m 1
 300 140 l 1
 300 60 l 1
 0 60 l 1
 0 140 l 1
200 300 m 1
 200 220 l 1
 100 220 l 1
 100 244.42 100 380 100 380 c 1
 200 300 l 1
EndSplineSet
Validated: 3
EndChar

StartChar: zero
Encoding: 48 48 58
Width: 600
VWidth: 79
Flags: W
HStem: 80 80<0 300> 240 160<0 200> 700 20G<200 300> 700 20G<200 300>
VStem: 0 300<80 160 240 400> 200 100<400 720>
LayerCount: 2
Fore
SplineSet
200 720 m 1xe4
 300 720 l 1xe4
 300 720 300 424.42 300 400 c 1xe8
 200 400 l 1
 200 720 l 1xe4
500 400 m 1
 500 480 l 1
500 640 m 1
 600 560 l 1
 600 560 600 695.58 600 720 c 1
 500 720 l 1xd0
 500 640 l 1
300 240 m 1xc8
 0 240 l 1
 0 240 0 375.58 0 400 c 1
 300 400 l 1
 300 240 l 1xc8
500 480 m 1
 400 560 l 1
 400 400 l 1
 500 400 l 1
 600 400 l 1
 600 552 l 1
 500 480 l 1
300 160 m 1
 300 80 l 1
 0 80 l 1
 0 160 l 1
 300 160 l 1
300 160 m 1
 300 80 l 1
 600 80 l 1
 600 160 l 1
 300 160 l 1
EndSplineSet
Validated: 11
EndChar

StartChar: two
Encoding: 50 50 59
Width: 600
VWidth: 79
Flags: W
HStem: 80 80<0 300> 240 160<0 200> 700 20G<200 300 400 500> 700 20G<200 300 400 500>
VStem: 0 300<80 160 240 400> 200 100<400 720> 400 100<640 720>
LayerCount: 2
Fore
SplineSet
200 720 m 5xe6
 300 720 l 5xe6
 300 720 300 424.42 300 400 c 5xea
 200 400 l 5
 200 720 l 5xe6
300 240 m 5xca
 0 240 l 5
 0 240 0 375.58 0 400 c 5
 300 400 l 5
 300 240 l 5xca
400 400 m 1
 500 400 l 1
 500 400 500 455.58 500 480 c 1
 400 560 l 1
 400 400 l 1
400 720 m 1xe2
 500 720 l 1
 500 720 500 664.42 500 640 c 1
 400 560 l 1
 400 720 l 1xe2
300 80 m 1xca
 600 80 l 1
 600 160 l 1
 300 160 l 1
 300 80 l 1xca
300 80 m 1
 0 80 l 1
 0 160 l 1
 300 160 l 1
 300 80 l 1
EndSplineSet
Validated: 5
EndChar

StartChar: three
Encoding: 51 51 60
Width: 600
VWidth: 79
Flags: W
HStem: 80 80<0 300> 240 160<0 200> 700 20G<200 300 400 600> 700 20G<200 300 400 600>
VStem: 0 300<80 160 240 400> 200 100<400 720>
LayerCount: 2
Fore
SplineSet
200 720 m 5xe4
 300 720 l 5xe4
 300 720 300 424.42 300 400 c 5xe8
 200 400 l 5
 200 720 l 5xe4
300 240 m 5xc8
 0 240 l 5
 0 240 0 375.58 0 400 c 5
 300 400 l 5
 300 240 l 5xc8
500 640 m 1
 400 568 l 1
 400 720 l 1
 500 720 l 1
 600 720 l 1xe0
 600 568 l 1
 500 640 l 1
300 80 m 1xc8
 600 80 l 1
 600 160 l 1
 300 160 l 1
 300 80 l 1xc8
300 80 m 1
 0 80 l 1
 0 160 l 1
 300 160 l 1
 300 80 l 1
EndSplineSet
Validated: 5
EndChar

StartChar: four
Encoding: 52 52 61
Width: 600
VWidth: 79
Flags: W
HStem: 80 80<0 300> 240 160<0 200> 700 20G<200 300 400 600> 700 20G<200 300 400 600>
VStem: 0 300<80 160 240 400> 200 100<400 720> 500 100<400 480>
LayerCount: 2
Fore
SplineSet
200 720 m 5xe6
 300 720 l 5xe6
 300 720 300 424.42 300 400 c 5xea
 200 400 l 5
 200 720 l 5xe6
300 240 m 5xca
 0 240 l 5
 0 240 0 375.58 0 400 c 5
 300 400 l 5
 300 240 l 5xca
500 720 m 1xe2
 500 640 l 1
500 480 m 1
 600 560 l 1
 600 560 600 424.42 600 400 c 1
 500 400 l 1
 500 480 l 1
500 640 m 1
 400 560 l 1
 400 720 l 1
 500 720 l 1
 600 720 l 1
 600 568 l 1
 500 640 l 1
300 80 m 1xca
 600 80 l 1
 600 160 l 1
 300 160 l 1
 300 80 l 1xca
300 80 m 1
 0 80 l 1
 0 160 l 1
 300 160 l 1
 300 80 l 1
EndSplineSet
Validated: 11
EndChar

StartChar: five
Encoding: 53 53 62
Width: 600
VWidth: 79
Flags: W
HStem: 80 80<0 300> 240 160<0 200> 400 160<500 600> 700 20G<200 300 400 500> 700 20G<200 300 400 500>
VStem: 0 300<80 160 240 400> 200 100<400 720> 400 100<640 720> 500 100<400 560>
LayerCount: 2
Fore
SplineSet
200 720 m 5xd2
 300 720 l 5xd2
 300 720 300 424.42 300 400 c 5xb4
 200 400 l 5
 200 720 l 5xd2
300 240 m 5xc4
 0 240 l 5
 0 240 0 375.58 0 400 c 5xc4
 300 400 l 5xa4
 300 240 l 5xc4
400 720 m 1xb1
 500 720 l 1
 500 720 500 664.42 500 640 c 1
 400 560 l 1
 400 720 l 1xb1
500 560 m 1xa080
 600 560 l 1
 600 560 600 424.42 600 400 c 1
 500 400 l 1
 500 560 l 1xa080
300 80 m 1x8480
 600 80 l 1
 600 160 l 1
 300 160 l 1
 300 80 l 1x8480
300 80 m 1
 0 80 l 1
 0 160 l 1
 300 160 l 1
 300 80 l 1
EndSplineSet
Validated: 5
EndChar

StartChar: six
Encoding: 54 54 63
Width: 600
VWidth: 79
Flags: W
HStem: 80 80<0 300> 240 160<0 200> 700 20G<200 300 400 600> 700 20G<200 300 400 600>
VStem: 0 300<80 160 240 400> 200 100<400 720> 400 100<400 480>
LayerCount: 2
Fore
SplineSet
200 720 m 5xe6
 300 720 l 5xe6
 300 720 300 424.42 300 400 c 5xea
 200 400 l 5
 200 720 l 5xe6
300 240 m 5xca
 0 240 l 5
 0 240 0 375.58 0 400 c 5
 300 400 l 5
 300 240 l 5xca
500 720 m 1xe2
 500 640 l 1
600 720 m 1
 600 560 l 1
 500 640 l 1
 400 568 l 1
 400 720 l 1
 500 720 l 1
 600 720 l 1
500 480 m 1
 500 400 l 1
 400 400 l 1
 400 424.42 400 560 400 560 c 1
 500 480 l 1
300 80 m 1xca
 600 80 l 1
 600 160 l 1
 300 160 l 1
 300 80 l 1xca
300 80 m 1
 0 80 l 1
 0 160 l 1
 300 160 l 1
 300 80 l 1
EndSplineSet
Validated: 11
EndChar

StartChar: seven
Encoding: 55 55 64
Width: 600
VWidth: 79
Flags: W
HStem: 80 80<0 600> 240 160<0 200> 700 20G<200 300 400 600> 700 20G<200 300 400 600>
VStem: 200 100<400 720> 400 100<400 480>
LayerCount: 2
Fore
SplineSet
200 720 m 5xec
 300 720 l 5
 300 720 300 424.42 300 400 c 5
 200 400 l 5
 200 720 l 5xec
300 240 m 5
 0 240 l 5
 0 240 0 375.58 0 400 c 5
 300 400 l 5
 300 240 l 5
500 400 m 1
 500 480 l 1
600 400 m 1
 600 560 l 1
 500 480 l 1
 500 455.58 500 400 500 400 c 1
 600 400 l 1
500 640 m 1
 400 568 l 1
 400 720 l 1
 500 720 l 1
 600 720 l 1
 600 568 l 1
 500 640 l 1
500 480 m 1
 500 400 l 1
 400 400 l 1
 400 552 l 1
 500 480 l 1
600 80 m 1
 0 80 l 1
 0 160 l 1
 600 160 l 1
 600 80 l 1
EndSplineSet
Validated: 11
EndChar

StartChar: eight
Encoding: 56 56 65
Width: 600
VWidth: 79
Flags: W
HStem: 80 80<0 300> 240 160<0 200> 700 20G<200 300 400 500> 700 20G<200 300 400 500>
VStem: 0 300<80 160 240 400> 200 100<400 720> 400 100<400 480 640 720>
LayerCount: 2
Fore
SplineSet
200 720 m 5xe6
 300 720 l 5xe6
 300 720 300 424.42 300 400 c 5xea
 200 400 l 5
 200 720 l 5xe6
300 240 m 5xca
 0 240 l 5
 0 240 0 375.58 0 400 c 5
 300 400 l 5
 300 240 l 5xca
500 400 m 1
 500 480 l 1
600 400 m 1
 600 560 l 1
 500 480 l 1
 500 455.58 500 400 500 400 c 1
 600 400 l 1
500 640 m 1
 400 560 l 1
 400 560 400 695.58 400 720 c 1
 500 720 l 1xe2
 500 640 l 1
500 480 m 1
 500 400 l 1
 400 400 l 1
 400 552 l 1
 500 480 l 1
300 80 m 1xca
 600 80 l 1
 600 160 l 1
 300 160 l 1
 300 80 l 1xca
300 80 m 1
 0 80 l 1
 0 160 l 1
 300 160 l 1
 300 80 l 1
EndSplineSet
Validated: 11
EndChar

StartChar: nine
Encoding: 57 57 66
Width: 600
VWidth: 79
Flags: W
HStem: 80 80<0 300> 240 160<0 200> 400 160<400 500> 700 20G<200 300 500 600> 700 20G<200 300 500 600>
VStem: 0 300<80 160 240 400> 200 100<400 720> 400 100<400 560> 500 100<640 720>
LayerCount: 2
Fore
SplineSet
200 720 m 5xd2
 300 720 l 5xd2
 300 720 300 424.42 300 400 c 5xb4
 200 400 l 5
 200 720 l 5xd2
300 240 m 5xc4
 0 240 l 5
 0 240 0 375.58 0 400 c 5xc4
 300 400 l 5xa4
 300 240 l 5xc4
600 720 m 1xb080
 600 560 l 1
 500 640 l 1
 500 664.42 500 720 500 720 c 1
 600 720 l 1xb080
500 560 m 1xa1
 500 400 l 1
 400 400 l 1
 400 424.42 400 560 400 560 c 1
 500 560 l 1xa1
300 80 m 1x8480
 600 80 l 1
 600 160 l 1
 300 160 l 1
 300 80 l 1x8480
300 80 m 1
 0 80 l 1
 0 160 l 1
 300 160 l 1
 300 80 l 1
EndSplineSet
Validated: 5
EndChar
